<svg width="16" height="21" viewBox="0 0 16 21" fill="none" xmlns="http://www.w3.org/2000/svg">
<path d="M15.903 6.9153C15.8556 6.80134 15.7892 6.69716 15.707 6.60765L9.707 0.30765C9.62175 0.221321 9.52253 0.151632 9.414 0.10185C9.384 0.0871499 9.352 0.0787499 9.32 0.0671999C9.23633 0.0373025 9.14922 0.0192929 9.061 0.01365C9.04 0.01155 9.021 0 9 0H2C0.897 0 0 0.94185 0 2.1V18.9C0 20.0581 0.897 21 2 21H14C15.103 21 16 20.0581 16 18.9V7.35C16 7.32795 15.989 7.308 15.987 7.2849C15.9821 7.1922 15.9649 7.10067 15.936 7.01295C15.926 6.97935 15.917 6.9468 15.903 6.9153ZM12.586 6.3H10V3.5847L12.586 6.3ZM2 18.9V2.1H8V7.35C8 7.62848 8.10536 7.89555 8.29289 8.09246C8.48043 8.28937 8.73478 8.4 9 8.4H14L14.002 18.9H2Z" fill="#272E7B"/>
</svg>
