<svg width="24" height="24" viewBox="0 0 24 24" fill="none" xmlns="http://www.w3.org/2000/svg">
<path d="M12.8552 0.354855C12.7437 0.242413 12.611 0.153166 12.4648 0.0922615C12.3186 0.0313568 12.1618 0 12.0035 0C11.8451 0 11.6883 0.0313568 11.5421 0.0922615C11.3959 0.153166 11.2632 0.242413 11.1517 0.354855L0.354855 11.1517C0.242413 11.2632 0.153166 11.3959 0.0922615 11.5421C0.0313568 11.6883 0 11.8451 0 12.0035C0 12.1618 0.0313568 12.3186 0.0922615 12.4648C0.153166 12.611 0.242413 12.7437 0.354855 12.8552C0.46695 12.9664 0.599891 13.0544 0.746053 13.1141C0.892216 13.1738 1.04873 13.204 1.20661 13.2031H2.40626V21.6007C2.40626 22.237 2.65904 22.8473 3.109 23.2972C3.55895 23.7472 4.16923 24 4.80556 24H19.2014C19.8377 24 20.448 23.7472 20.8979 23.2972C21.3479 22.8473 21.6007 22.237 21.6007 21.6007V13.2031H22.8003C23.1185 13.2031 23.4236 13.0767 23.6486 12.8517C23.8736 12.6268 24 12.3216 24 12.0035C24.0009 11.8456 23.9706 11.6891 23.9109 11.5429C23.8512 11.3968 23.7633 11.2638 23.6521 11.1517L12.8552 0.354855ZM4.80556 21.6007V10.096L12.0035 2.89812L19.2014 10.096V21.6007H4.80556Z" fill="#10356A"/>
</svg>
