<svg width="417" height="237" viewBox="0 0 417 237" fill="none" xmlns="http://www.w3.org/2000/svg">
<rect width="417" height="237" rx="20" fill="#E3ECEB"/>
<rect x="26" y="20" width="365" height="198" rx="20" fill="white"/>
<path d="M191.456 164.035C196.462 168.501 196.95 176.266 191.774 180.533C182.864 187.88 172.419 193.227 161.145 196.146C145.933 200.084 129.895 199.423 115.058 194.247C100.222 189.07 87.254 179.61 77.7941 167.063C68.3342 154.516 62.8073 139.446 61.9124 123.757C61.0175 108.069 64.7947 92.4682 72.7664 78.9269C80.7382 65.3855 92.5464 54.5122 106.698 47.6818C120.849 40.8515 136.708 38.3709 152.27 40.5538C163.802 42.1715 174.787 46.2968 184.475 52.5823C190.103 56.2335 190.501 64.0034 186.035 69.0094V69.0094C181.57 74.0153 173.932 74.311 168.072 71.0468C162.161 67.7545 155.664 65.5608 148.895 64.6113C138.092 63.0958 127.082 64.8179 117.257 69.5598C107.433 74.3016 99.2355 81.8503 93.7012 91.2511C88.167 100.652 85.5447 111.483 86.166 122.374C86.7873 133.265 90.6242 143.727 97.1916 152.438C103.759 161.148 112.762 167.716 123.062 171.31C133.362 174.904 144.496 175.363 155.057 172.628C161.673 170.915 167.879 167.997 173.377 164.054C178.829 160.144 186.45 159.57 191.456 164.035V164.035Z" fill="#405755"/>
<path fill-rule="evenodd" clip-rule="evenodd" d="M133.779 77.8118C138.109 75.3139 143.442 75.3139 147.772 77.8118L172.772 92.2349C177.105 94.7351 179.776 99.3581 179.776 104.361V118.427V133.19C179.776 138.193 177.105 142.816 172.772 145.316L147.772 159.739C143.442 162.237 138.109 162.237 133.779 159.739L108.779 145.316C104.446 142.816 101.776 138.193 101.776 133.19V104.361C101.776 99.3581 104.446 94.7351 108.779 92.2349L133.779 77.8118ZM171.496 109.819C171.496 104.422 168.394 99.5054 163.523 97.1822L145.067 88.3804C143.076 87.4308 140.776 88.8824 140.776 91.0882V119.124V147.859C140.776 150.148 143.235 151.593 145.234 150.481L164.303 139.871C168.743 137.4 171.496 132.718 171.496 127.637V109.819ZM116.776 101.083C116.776 98.5707 114.206 96.8766 111.897 97.8664V97.8664C110.61 98.418 109.776 99.6834 109.776 101.083V134.744C109.776 136 110.449 137.16 111.539 137.783V137.783C113.872 139.117 116.776 137.432 116.776 134.744V130.276C116.776 128.343 118.343 126.776 120.276 126.776V126.776C122.209 126.776 123.776 128.343 123.776 130.276V143.436C123.776 144.881 124.555 146.214 125.815 146.922V146.922C128.481 148.422 131.776 146.495 131.776 143.436V95.9926C131.776 92.8508 128.32 90.9354 125.656 92.6006V92.6006C124.486 93.3315 123.776 94.6134 123.776 95.9926V112.276C123.776 114.209 122.209 115.776 120.276 115.776V115.776C118.343 115.776 116.776 114.209 116.776 112.276V101.083Z" fill="#CA9C34"/>
<path d="M249.707 81.7756H246.185C245.976 80.7623 245.612 79.8722 245.091 79.1051C244.58 78.3381 243.955 77.6941 243.216 77.1733C242.487 76.643 241.677 76.2453 240.787 75.9801C239.897 75.715 238.969 75.5824 238.003 75.5824C236.241 75.5824 234.646 76.0275 233.216 76.9176C231.795 77.8078 230.664 79.1193 229.821 80.8523C228.988 82.5852 228.571 84.7112 228.571 87.2301C228.571 89.7491 228.988 91.875 229.821 93.608C230.664 95.3409 231.795 96.6525 233.216 97.5426C234.646 98.4328 236.241 98.8778 238.003 98.8778C238.969 98.8778 239.897 98.7453 240.787 98.4801C241.677 98.215 242.487 97.822 243.216 97.3011C243.955 96.7708 244.58 96.1222 245.091 95.3551C245.612 94.5786 245.976 93.6884 246.185 92.6847H249.707C249.442 94.1714 248.959 95.5019 248.259 96.6761C247.558 97.8504 246.687 98.8494 245.645 99.6733C244.603 100.488 243.434 101.108 242.136 101.534C240.848 101.96 239.471 102.173 238.003 102.173C235.522 102.173 233.315 101.567 231.384 100.355C229.452 99.143 227.932 97.4195 226.824 95.1847C225.716 92.9498 225.162 90.2983 225.162 87.2301C225.162 84.1619 225.716 81.5104 226.824 79.2756C227.932 77.0407 229.452 75.3172 231.384 74.1051C233.315 72.893 235.522 72.2869 238.003 72.2869C239.471 72.2869 240.848 72.5 242.136 72.9261C243.434 73.3523 244.603 73.9773 245.645 74.8011C246.687 75.6155 247.558 76.6098 248.259 77.7841C248.959 78.9489 249.442 80.2794 249.707 81.7756ZM258.298 88.6506V101.776H254.945V72.6847H258.298V83.3665H258.582C259.093 82.2396 259.86 81.3447 260.883 80.6818C261.915 80.0095 263.288 79.6733 265.002 79.6733C266.489 79.6733 267.791 79.9716 268.908 80.5682C270.026 81.1553 270.892 82.0597 271.508 83.2812C272.133 84.4934 272.445 86.0369 272.445 87.9119V101.776H269.093V88.1392C269.093 86.4062 268.643 85.0663 267.744 84.1193C266.853 83.1629 265.618 82.6847 264.036 82.6847C262.938 82.6847 261.953 82.9167 261.082 83.3807C260.22 83.8447 259.538 84.5218 259.036 85.4119C258.544 86.3021 258.298 87.3816 258.298 88.6506ZM284.999 102.287C283.616 102.287 282.361 102.027 281.234 101.506C280.107 100.975 279.213 100.213 278.55 99.2187C277.887 98.215 277.555 97.0028 277.555 95.5824C277.555 94.3324 277.802 93.3191 278.294 92.5426C278.786 91.7566 279.445 91.1411 280.268 90.696C281.092 90.2509 282.001 89.9195 282.996 89.7017C284 89.4744 285.008 89.2945 286.021 89.1619C287.347 88.9915 288.422 88.8636 289.246 88.7784C290.079 88.6837 290.685 88.5275 291.064 88.3097C291.452 88.0919 291.646 87.7131 291.646 87.1733V87.0597C291.646 85.6581 291.263 84.5691 290.496 83.7926C289.738 83.0161 288.588 82.6278 287.044 82.6278C285.444 82.6278 284.189 82.9782 283.28 83.679C282.371 84.3797 281.732 85.1278 281.362 85.9233L278.18 84.7869C278.749 83.4612 279.506 82.429 280.453 81.6903C281.41 80.9422 282.451 80.4214 283.578 80.1278C284.714 79.8248 285.832 79.6733 286.93 79.6733C287.631 79.6733 288.436 79.7585 289.345 79.929C290.264 80.09 291.149 80.4261 292.001 80.9375C292.863 81.4489 293.578 82.2206 294.146 83.2528C294.714 84.285 294.999 85.6676 294.999 87.4006V101.776H291.646V98.821H291.476C291.249 99.2945 290.87 99.8011 290.339 100.341C289.809 100.881 289.104 101.34 288.223 101.719C287.342 102.098 286.268 102.287 284.999 102.287ZM285.51 99.2756C286.836 99.2756 287.953 99.0151 288.862 98.4943C289.781 97.9735 290.472 97.3011 290.936 96.4773C291.41 95.6534 291.646 94.7869 291.646 93.8778V90.8097C291.504 90.9801 291.192 91.1364 290.709 91.2784C290.235 91.411 289.686 91.5294 289.061 91.6335C288.446 91.7282 287.844 91.8134 287.257 91.8892C286.679 91.9555 286.211 92.0123 285.851 92.0597C284.98 92.1733 284.165 92.358 283.408 92.6136C282.66 92.8598 282.054 93.2339 281.589 93.7358C281.135 94.2282 280.908 94.9006 280.908 95.7528C280.908 96.9176 281.339 97.7983 282.2 98.3949C283.072 98.982 284.175 99.2756 285.51 99.2756ZM301.117 101.776V79.9574H304.469V101.776H301.117ZM302.822 76.321C302.168 76.321 301.605 76.0985 301.131 75.6534C300.667 75.2083 300.435 74.6733 300.435 74.0483C300.435 73.4233 300.667 72.8883 301.131 72.4432C301.605 71.9981 302.168 71.7756 302.822 71.7756C303.475 71.7756 304.034 71.9981 304.498 72.4432C304.971 72.8883 305.208 73.4233 305.208 74.0483C305.208 74.6733 304.971 75.2083 304.498 75.6534C304.034 76.0985 303.475 76.321 302.822 76.321ZM235.276 149.776H226.298V120.685H235.673C238.495 120.685 240.91 121.267 242.918 122.432C244.925 123.587 246.464 125.249 247.534 127.418C248.604 129.577 249.139 132.162 249.139 135.173C249.139 138.204 248.599 140.812 247.52 143C246.44 145.178 244.868 146.854 242.804 148.028C240.74 149.193 238.23 149.776 235.276 149.776ZM229.821 146.651H235.048C237.454 146.651 239.447 146.187 241.028 145.259C242.61 144.33 243.789 143.009 244.565 141.295C245.342 139.581 245.73 137.541 245.73 135.173C245.73 132.825 245.347 130.803 244.58 129.108C243.813 127.403 242.667 126.097 241.142 125.187C239.617 124.269 237.719 123.81 235.446 123.81H229.821V146.651ZM254.594 149.776V127.957H257.946V149.776H254.594ZM256.298 124.321C255.645 124.321 255.081 124.098 254.608 123.653C254.144 123.208 253.912 122.673 253.912 122.048C253.912 121.423 254.144 120.888 254.608 120.443C255.081 119.998 255.645 119.776 256.298 119.776C256.952 119.776 257.51 119.998 257.974 120.443C258.448 120.888 258.685 121.423 258.685 122.048C258.685 122.673 258.448 123.208 257.974 123.653C257.51 124.098 256.952 124.321 256.298 124.321ZM279.54 132.844L276.529 133.696C276.34 133.194 276.06 132.706 275.691 132.233C275.331 131.75 274.839 131.352 274.214 131.04C273.589 130.727 272.789 130.571 271.813 130.571C270.478 130.571 269.365 130.879 268.475 131.494C267.594 132.1 267.154 132.872 267.154 133.81C267.154 134.643 267.457 135.301 268.063 135.784C268.669 136.267 269.616 136.67 270.904 136.991L274.143 137.787C276.094 138.26 277.547 138.985 278.504 139.96C279.46 140.926 279.938 142.171 279.938 143.696C279.938 144.946 279.578 146.063 278.859 147.048C278.148 148.033 277.154 148.81 275.876 149.378C274.597 149.946 273.111 150.23 271.415 150.23C269.19 150.23 267.348 149.747 265.89 148.781C264.432 147.815 263.508 146.404 263.12 144.548L266.302 143.753C266.605 144.927 267.178 145.808 268.021 146.395C268.873 146.982 269.986 147.276 271.359 147.276C272.921 147.276 274.162 146.944 275.08 146.281C276.008 145.609 276.472 144.804 276.472 143.866C276.472 143.109 276.207 142.474 275.677 141.963C275.147 141.442 274.332 141.054 273.234 140.798L269.597 139.946C267.599 139.473 266.131 138.739 265.194 137.744C264.266 136.741 263.802 135.486 263.802 133.98C263.802 132.749 264.147 131.66 264.839 130.713C265.54 129.766 266.491 129.023 267.694 128.483C268.906 127.943 270.279 127.673 271.813 127.673C273.972 127.673 275.667 128.147 276.898 129.094C278.139 130.041 279.02 131.291 279.54 132.844ZM284.984 149.776V127.957H288.337V149.776H284.984ZM286.689 124.321C286.036 124.321 285.472 124.098 284.999 123.653C284.535 123.208 284.303 122.673 284.303 122.048C284.303 121.423 284.535 120.888 284.999 120.443C285.472 119.998 286.036 119.776 286.689 119.776C287.342 119.776 287.901 119.998 288.365 120.443C288.839 120.888 289.075 121.423 289.075 122.048C289.075 122.673 288.839 123.208 288.365 123.653C287.901 124.098 287.342 124.321 286.689 124.321ZM297.829 136.651V149.776H294.477V127.957H297.715V131.366H297.999C298.511 130.259 299.287 129.368 300.329 128.696C301.371 128.014 302.715 127.673 304.363 127.673C305.84 127.673 307.133 127.976 308.241 128.582C309.349 129.179 310.21 130.088 310.826 131.31C311.442 132.522 311.749 134.056 311.749 135.912V149.776H308.397V136.139C308.397 134.425 307.952 133.09 307.062 132.134C306.172 131.168 304.95 130.685 303.397 130.685C302.327 130.685 301.371 130.917 300.528 131.381C299.694 131.845 299.036 132.522 298.553 133.412C298.07 134.302 297.829 135.382 297.829 136.651ZM326.682 158.412C325.063 158.412 323.67 158.204 322.506 157.787C321.341 157.38 320.37 156.84 319.594 156.168C318.827 155.505 318.216 154.795 317.761 154.037L320.432 152.162C320.735 152.56 321.118 153.014 321.582 153.526C322.046 154.046 322.681 154.496 323.486 154.875C324.3 155.263 325.366 155.457 326.682 155.457C328.443 155.457 329.897 155.031 331.043 154.179C332.188 153.327 332.761 151.991 332.761 150.173V145.741H332.477C332.231 146.139 331.881 146.632 331.426 147.219C330.981 147.796 330.337 148.312 329.494 148.767C328.661 149.212 327.534 149.435 326.114 149.435C324.352 149.435 322.771 149.018 321.369 148.185C319.977 147.351 318.874 146.139 318.06 144.548C317.255 142.957 316.852 141.026 316.852 138.753C316.852 136.518 317.245 134.572 318.031 132.915C318.817 131.248 319.911 129.96 321.313 129.051C322.714 128.133 324.333 127.673 326.17 127.673C327.591 127.673 328.718 127.91 329.551 128.384C330.394 128.848 331.038 129.378 331.483 129.974C331.938 130.562 332.288 131.045 332.534 131.423H332.875V127.957H336.114V150.401C336.114 152.276 335.688 153.8 334.835 154.974C333.992 156.158 332.856 157.025 331.426 157.574C330.006 158.133 328.424 158.412 326.682 158.412ZM326.568 146.423C327.913 146.423 329.049 146.116 329.977 145.5C330.905 144.884 331.611 143.999 332.094 142.844C332.577 141.688 332.818 140.306 332.818 138.696C332.818 137.124 332.581 135.737 332.108 134.534C331.634 133.331 330.934 132.389 330.006 131.707C329.078 131.026 327.932 130.685 326.568 130.685C325.148 130.685 323.964 131.045 323.017 131.764C322.08 132.484 321.374 133.45 320.901 134.662C320.437 135.874 320.205 137.219 320.205 138.696C320.205 140.211 320.441 141.551 320.915 142.716C321.398 143.871 322.108 144.78 323.045 145.443C323.992 146.097 325.167 146.423 326.568 146.423Z" fill="#CA9C34"/>
</svg>
